# xmcd CD database file
#
# Track frame offsets:
#	150
#	26077
#	51965
#	77655
#	97422
#	120120
#	145507
#	165035
#	202005
#	223010
#
# Disc length: 3083 seconds
#
# Revision: 0
# Processed by: cddbd v1.5.1PL2 Copyright (c) Steve Scherf et al.
# Submitted via: CDex 1.51
#
DISCID=810c090a
DTITLE=Jan Verwey - You Must Believe in Spring
DYEAR=1992
DGENRE=Jazz
TTITLE0=Dolphin Dance
TTITLE1=Theme For Joke
TTITLE2=You Must Believe In Spring
TTITLE3=Beautiful Black Eyes
TTITLE4=One For Mr. T.
TTITLE5=Nardis
TTITLE6=But Not For Me
TTITLE7=Hommage De Bill
TTITLE8=Bouncin' With Bud
TTITLE9=I'm Getting Sentimental Over You
EXTD=YEAR: 1992
EXTT0=
EXTT1=
EXTT2=
EXTT3=
EXTT4=
EXTT5=
EXTT6=
EXTT7=
EXTT8=
EXTT9=
PLAYORDER=
